<svg id="Layer_1" data-name="Layer 1" xmlns="http://www.w3.org/2000/svg" viewBox="0 0 595.28 841.89"><defs><style>.cls-1,.cls-15{fill:#231f20;}.cls-2{font-size:150px;font-family:Cinzel-Bold, Cinzel;font-weight:700;letter-spacing:0.11em;}.cls-13,.cls-14,.cls-2,.cls-5,.cls-8{fill:#fff;}.cls-3{letter-spacing:0.08em;}.cls-4{letter-spacing:0.1em;}.cls-5{font-size:25px;}.cls-5,.cls-8{font-family:MyriadPro-Regular, Myriad Pro;}.cls-6{letter-spacing:0.01em;}.cls-7{letter-spacing:-0.02em;}.cls-8{font-size:15px;}.cls-9{letter-spacing:-0.01em;}.cls-10{letter-spacing:-0.01em;}.cls-11{letter-spacing:-0.01em;}.cls-12{letter-spacing:-0.05em;}.cls-13{opacity:0.75;}.cls-15{opacity:0.5;}</style></defs><title>default-light</title><rect class="cls-1" width="595.28" height="841.89"/><text class="cls-2" transform="translate(28.47 199.83)">BO<tspan class="cls-3" x="266.09" y="0">O</tspan><tspan class="cls-4" x="409.79" y="0">K</tspan></text><text class="cls-5" transform="translate(217.26 780.37)">Guy/<tspan class="cls-6" x="50.27" y="0">G</tspan><tspan x="66.62" y="0">al </tspan><tspan class="cls-7" x="89.87" y="0">P</tspan><tspan x="102.55" y="0">erson</tspan></text><text class="cls-8" transform="translate(121.65 655.03)"><tspan class="cls-9">c</tspan><tspan class="cls-10" x="6.63" y="0">o</tspan><tspan class="cls-11" x="14.76" y="0">v</tspan><tspan x="21.83" y="0">e</tspan><tspan class="cls-12" x="29.34" y="0">r</tspan><tspan x="33.45" y="0">.png</tspan></text><polygon class="cls-13" points="385.34 283.31 121.65 283.31 121.65 635.3 473.63 635.3 473.63 370.43 385.34 283.31"/><polygon class="cls-13" points="139.19 617.76 139.19 300.85 378.14 300.85 456.09 377.76 456.09 617.76 139.19 617.76"/><polyline class="cls-14" points="473.63 370.43 385.34 370.43 385.34 283.31"/><path class="cls-15" d="M297.64,459.31A158.45,158.45,0,0,0,139.19,617.76h316.9A158.45,158.45,0,0,0,297.64,459.31Z" transform="translate(0)"/><path class="cls-15" d="M139.19,344.88a44,44,0,0,0,44-44h-44Z" transform="translate(0)"/></svg>