<svg id="Capa_1" data-name="Capa 1" xmlns="http://www.w3.org/2000/svg" viewBox="0 0 512 512"><defs><style>.cls-1{fill:#fff;}</style></defs><title>catalogue</title><path class="cls-1" d="M346,482H325.27l-15-31H201.73l-15,31H166a15,15,0,0,0,0,30H346a15,15,0,0,0,0-30Z"/><path class="cls-1" d="M316,90a45.05,45.05,0,0,0-45,45V243.56A45.13,45.13,0,0,1,286,241h75V90Z"/><path class="cls-1" d="M196,90H151V241h75a45.13,45.13,0,0,1,15,2.56V135A45.05,45.05,0,0,0,196,90Z"/><path class="cls-1" d="M0,361v15a45.05,45.05,0,0,0,45,45H467a45.05,45.05,0,0,0,45-45V361Z"/><path class="cls-1" d="M467,0H45A45.05,45.05,0,0,0,0,45V331H512V45A45.05,45.05,0,0,0,467,0ZM391,256a15,15,0,0,1-15,15H286a15,15,0,0,0-15,15,15,15,0,0,1-30,0,15,15,0,0,0-15-15H136a15,15,0,0,1-15-15V75a15,15,0,0,1,15-15h60a75,75,0,0,1,60,30,75,75,0,0,1,60-30h60a15,15,0,0,1,15,15Z"/></svg>