<?xml version="1.0" encoding="utf-8"?>
<!-- Generator: Adobe Illustrator 24.0.1, SVG Export Plug-In . SVG Version: 6.00 Build 0)  -->
<svg version="1.1" id="Layer_1" xmlns="http://www.w3.org/2000/svg" xmlns:xlink="http://www.w3.org/1999/xlink" x="0px" y="0px"
	 viewBox="0 0 512 512" style="enable-background:new 0 0 512 512;" xml:space="preserve">
<style type="text/css">
	.st0{fill:#FFFFFF;}
</style>
<path class="st0" d="M419.1,138.4C408.9,74.6,347.7,12.9,284,2.4C199.1-11.7,123.6,38.8,98.7,112.6c-8.8,26.1,10.9,53,38.4,53h0
	c19.1,0,36.5-11.5,43.4-29.2c12.2-31.4,43.5-53.3,79.6-51.3c40.9,2.2,74,35.3,76.2,76.2c2.5,46.5-34.6,85-80.5,85h0
	c-23.5,0-42.5,19-42.5,42.5V364c0,24.1,19.5,43.6,43.6,43.6h0c22.9,0,41.5-18.6,41.5-41.5v0c0-22.1,12.2-42.5,32-52.5
	C391.6,282.6,431.2,214.3,419.1,138.4z"/>
<circle class="st0" cx="255.3" cy="474.8" r="37.2"/>
</svg>
