<svg id="Layer_1" data-name="Layer 1" xmlns="http://www.w3.org/2000/svg" viewBox="0 0 324.7 511.96"><title>generate-dark</title><path d="M419.1,138.4C408.9,74.6,347.7,12.9,284,2.4,199.1-11.7,123.6,38.8,98.7,112.6c-8.8,26.1,10.9,53,38.4,53h0c19.1,0,36.5-11.5,43.4-29.2a80.69,80.69,0,1,1,75.3,109.9h0a42.46,42.46,0,0,0-42.5,42.5V364a43.57,43.57,0,0,0,43.6,43.6h0a41.53,41.53,0,0,0,41.5-41.5h0a58.65,58.65,0,0,1,32-52.5C391.6,282.6,431.2,214.3,419.1,138.4Z" transform="translate(-96.58 -0.04)"/><circle cx="158.72" cy="474.76" r="37.2"/></svg>