<svg id="Layer_1" data-name="Layer 1" xmlns="http://www.w3.org/2000/svg" viewBox="0 0 160.3 160.3"><defs><style>.cls-1{fill:none;stroke:#000;stroke-miterlimit:10;stroke-width:0.5px;}</style></defs><title>globe-dark</title><circle class="cls-1" cx="80.15" cy="80.15" r="79.9"/><path d="M138.53,25.6c-2-2-2.66.54-2.66.54s-1-1-1.78-.72c-.13.06-.32.18-.61.72-.66,1.27-.3,1.89-.72,2.28-.78.72-2.81-.66-3.22-.11-.27.36.48,1.13.27,1.33s-2.82-.88-2.66-2.16a1.2,1.2,0,0,1,.83-1c.73-.17,1.14.79,2,.83a2.18,2.18,0,0,0,2-1.61c-.14-1.72-7.5-3.11-13.34-1.72-1.83.43-4.35,1-5.16,2.89-.33.73-.34,1.56-1.12,2.11s-1.27.15-2.55.66A3,3,0,0,0,108,31a2.88,2.88,0,0,0,1.5,3.28c1.28.59,2.25-.55,3.33.11s.74,2.14,1.67,2.39a2,2,0,0,0,1.83-.89c.36-.51.17-.79.55-1.28.55-.69,1.23-.49,1.45-.94.35-.73-1.26-1.53-1.28-2.83,0-1.73,2.72-3.57,3.56-3.06.23.15.28.46.33.89.23,1.82-1,2.71-.56,3.39s1.43.53,3.34.5c1.37,0,2.2-.2,2.39.17s-.11.68-.39.94c-1.2,1.08-3.81-.45-4.28.28-.28.44.54,1.2.22,1.61s-1.86-.37-2.33.17.4,1.37-.06,2c-.27.38-.84.41-1.44.44-1.32.07-1.69-.49-2.61-.28-.69.16-.66.52-1.39.84-1.2.52-1.88-.18-3.28-.12-.81,0-1.92.73-4.11,2.12s-1.88,1.37-2.94,1.94c-2.53,1.35-3.76,1.1-4.06,2-.44,1.3,1.85,2.72,1.33,3.61-.33.58-1.64.61-2.5.39-1.07-.27-1.61-1-2-.72s-.29.48-.34.89a6.76,6.76,0,0,0,.28,2c.16,1.39-.94,1.68-.78,2.78a3.23,3.23,0,0,0,3.34,2.28c.69-.13.78-.56,1.72-.72s1.47.3,1.94,0c.75-.48,0-1.81.73-2.89s1.75-.44,2.77-1.56c.86-.93.51-1.73,1.23-2,1-.45,2.07.81,2.89.27.44-.29.27-.79.72-1s1.68.24,2.16,1.06,0,1.54.62,2c.23.22.62.28,1.38.39,1.19.18,1.4,0,1.67.23.63.55-.17,1.92.39,2.33a1.08,1.08,0,0,0,1.28-.33c.48-.64-.07-1.76-.39-2.39-1.51-3-4.29-4.1-4.17-4.34s4.15.45,5.28,3.11c.56,1.32.27,2.76,1.17,3.17.73.34,1.65-.29,1.83,0s-1.19,1.3-.94,1.89,1.29.63,1.88.17.53-1.7.17-2.39c-.47-.93-1.35-1.07-1.28-1.45s1.26-.69,2.28-.55,1.25.53,1.89.33a1.52,1.52,0,0,0,.94-.83c.27-.66-.25-1.06-.33-2a3,3,0,0,1,1.83-3,1.62,1.62,0,0,1,1.5.28c.58.57.08,1.47.62,1.89a1.32,1.32,0,0,0,1.72-.33c.27-.52-.47-1-.28-1.67.28-1,2.39-1.5,2.78-1,.19.26-.06.78-.22,1.11-.44.89-1,.94-1.06,1.33-.27,1.17,4,2.5,3.78,3.67-.1.63-1.48,1.16-2.45.83-.68-.23-.61-.7-1.39-1.16a3.19,3.19,0,0,0-3.44,0c-.43.39-.48.84-.89.89s-.72-.55-1.22-.5-.47.67-1.11,1.11c-.86.6-1.94.22-2,.5s.63.34.94,1,0,.73.17,1.17a2,2,0,0,0,2.17.94c.78-.17.83-.79,1.55-.83s.73.42,1.5.5,1.24-.42,1.61-.28.66,1,.34,3.68a1.68,1.68,0,0,1-1,1.34c-1.49.62-4.81,1.36-9.82-1a1.65,1.65,0,0,0-2,.4l-.11.13a1.67,1.67,0,0,1-2.35.32.18.18,0,0,1-.07,0,4.51,4.51,0,0,0-2.55-.93c-1.29-.11-2.17.49-2.84-.07-.89-.75-.05-2.47-.88-3-.58-.37-1.16.34-2.62.28-1.18,0-1.26-.55-2.27-.67-1.78-.21-2.22,1.23-4.56,1.67-1.74.32-1.8-.42-3.61-.06-.4.08-3.07.62-3.83,2.5-.42,1,.17,1.37-.28,2.34-.65,1.38-2,1-3.22,2.5-.86,1.08-.35,1.52-1.34,2.83s-1.75,1.19-2,2c-.35,1.25,1.11,1.92,1.23,3.56s-1.42,2.26-2,3.94c-1.4,4,4.07,10.93,7.77,10.56a16.34,16.34,0,0,1,2.84-.61c2-.08,2.37.63,3.77.33,1.73-.37,1.87-1.6,3.12-1.5s1.29,1.29,2.88,1.56c.93.15,1.22-.19,2.17.11a3,3,0,0,1,1.67,1.11c.56.84.08,1.53.11,2.89.05,2.91,2.29,3.54,2,6.11a4.24,4.24,0,0,0,0,1.94,6.51,6.51,0,0,0,1.05,1.73c.66,1.13.17,2.39-.16,3.77-.37,1.54-1.55,6.47.44,9.39a6.42,6.42,0,0,1,1.34,2.23c.36,1.33-.15,1.89.33,2.88s1.43.83,2.05,1.89c.93,1.57-.38,3.27.45,4,.54.44,1.21-.22,2.78,0a8.16,8.16,0,0,1,2,.84c3,1.06,9-3.69,8.67-7.11a3.5,3.5,0,0,1,.05-2c.49-1.16,1.57-1.08,2.17-2,.77-1.27-.44-2.36-.17-4,.38-2.26,3-2.41,4.56-4.45,2.46-3.23-1.48-6.39-.11-11.17,1.78-6.23,10.53-8,11.05-13,0-.35.16-1.47-.44-1.89-.8-.56-2.06.74-4.61,1.22a7.66,7.66,0,0,1-3.5,0c-1.82-.55-2.42-2.18-4.22-5.44-1.66-3-5.17-8.87-5.73-12.56-.06-.46-.13-1.14.23-1.39.62-.42,2.12.79,2.39,1,2.29,1.85,2.51,4.37,4,8.56s2.35,6.4,4,6.83,2.16-1.37,6.5-2.39c1.92-.45,3.08-.39,4-1.44.7-.86.38-1.44,1.27-2.78,1-1.51,2.07-1.75,2-2.33-.19-.88-2.67-.51-3.34-1.89-.41-.87.17-1.84-.16-2s-.84.94-2,1.44c-1.49.64-3.66.08-4.34-1.11-.42-.75,0-1.25-.55-2s-1.32-.63-1.56-1.28a1.36,1.36,0,0,1,.56-1.66c1.16-.39,2.46,3.78,5,3.83,1.2,0,1.6-.89,2.78-.61s1.32,1.26,2.39,1.94a4.14,4.14,0,0,0,2.62.55,1.66,1.66,0,0,0,1.51-1.8l0-.2C157.25,58.9,152.06,39.13,138.53,25.6Z"/><path d="M148.26,107.48a7.9,7.9,0,0,0-2.11,3.28c-.69,2.14,0,3.53-1.06,4.66-.77.83-2.2,1.22-2.83.72-.78-.6.34-2-.11-4.88-.21-1.34-.58-1.91-.28-3a3.31,3.31,0,0,1,1.39-1.94c.74-.44,1.05-.09,1.67-.5.9-.61.57-1.57,1.44-2.17a1.89,1.89,0,0,1,1.89-.17C149,104,149.24,105.7,148.26,107.48Z"/><path d="M105.37,39.81c.19.67-.78,1.57-1.56,2-1.24.69-3.23.88-3.94-.11A1.54,1.54,0,0,1,99.81,40c.39-.45,1.07-.18,1.23-.5s-1.23-1.12-1.56-2.5c-.23-1,.12-2.29.78-2.45.85-.2,2,1.27,1.83,1.61-.08.15-.4,0-.55.28a.58.58,0,0,0,.11.68c.27.24.62-.09.94.09.53.27.06,1.37.61,1.79s1-.15,1.66.28A1.09,1.09,0,0,1,105.37,39.81Z"/><path d="M99.23,37.74a1.41,1.41,0,0,1,.17,1.5A2.17,2.17,0,0,1,98,40.32c-.15.07-1.63.67-2,.16s.26-1.43.85-2S98.67,37.28,99.23,37.74Z"/><path d="M79.65,28.13c-4.1,1.88-5.63,2.4-6,3.72a1.56,1.56,0,0,1-.28.72c-.64.79-2.36.77-3.44.11a4.27,4.27,0,0,1-1.39-5c.63-1.5,1.85-1.34,2.39-2.78.71-1.93-.55-4.67-2.06-5-.65-.17-.77.24-2.39.44-.89.11-2.76.34-3.22-.5a1.11,1.11,0,0,1,0-1.06c.46-.73,1.73-.61,2.73-.66,2.38-.14,2.47-1.28,4.94-1.89,3.29-.82,4.08,1,7.78.11,1.86-.43,1.68-.88,3.39-1.11,2.46-.34,3.36.53,5.44-.11,1.55-.48,1.55-1.11,2.67-1.11,1.62,0,1.81,1.33,3.67,1.5,1.4.13,2.33-.54,3.11.11a1,1,0,0,1,.44.78c-.06.79-1.78.65-3,1.83-1.42,1.37-.68,3.1-1.78,3.55s-2.08-.92-3.61-.33c-.09,0-.56.22-.55.45s1,.32,1.77,1.11c.23.22.71.71.62,1.16-.19.94-2.68,1.19-3.5,1.28-1.57.16-1.69-.11-2.67.17a13.2,13.2,0,0,0-2.58,1.35C81.65,27.13,81,27.48,79.65,28.13Z"/><path d="M23,24.32c1-1,1.58.49,1.58.49,1.86-.35,2.81,0,3.33.46s.73.92,1.46,1.12.79-.11,1.54,0c1,.16,1.22.77,2,.84s1.13-.67,2-1.13c2.3-1.15,4.91,1.34,6.92.25a1.59,1.59,0,0,0,.91-1c.12-.51-.27-.86-.08-1.29a1.24,1.24,0,0,1,.83-.54c1-.3,2.17-.14,2.25.25s-1.16.89-1,1.25.54.06,1.09.38.56,1,1,1.08c.61.18,1-.88,2.2-1.13.48-.09,1.28-.1,1.59.34a1.66,1.66,0,0,1-.5,1.91c-1.3,1.12-4.75.33-5.79.09-.2-.05-.66-.16-.92.08s.1,1.12-.25,1.5c-.49.54-2-.43-2.42.08s.29,1.07,0,1.5-1.22,0-2.29.13c-1.58.23-3.23,1.79-3.13,3.25a3.07,3.07,0,0,0,1.38,2c1,.73,1.78.39,3,1.29a2.55,2.55,0,0,1,1,1.13c.44,1.18-.59,2.25-.17,2.66s1,.09,1.5-.29c.66-.54.36-1.16,1-2,.2-.24.38-.38,1.75-1.08,2-1,1.87-.87,2.08-1,1.44-1.13.49-2.74,1.92-4.29a4.24,4.24,0,0,1,2.79-1.29c.39,0,1.78-.12,2.29.66s-.2,1.74.34,2.25a1.48,1.48,0,0,0,1.25.17c1.77-.34,2.47-2.34,3-2.13.29.12.33.83.21,1.34-.25,1-1.18,1.34-1,1.71s1,.07,1.34.58a1.41,1.41,0,0,1,0,1.17c-.35,1.15-1.55,1.59-1.42,1.91,0,.12.25.17.71.17,1.73,0,2.83-.76,3.08-.46s0,.56-.16.75a5.83,5.83,0,0,1-3.38,2.25c-2.63.82-4.06-.54-6.87.5-1.46.54-2.94,1.59-2.79,2,.07.25.64.33,1,.29,1.13-.09,1.55-1.18,2.21-1a1,1,0,0,1,.58.67c.19.71-.59,1.23-.42,1.54.3.55,2.79-.64,3.29.09.21.28,0,.73,0,.79-.17.37-.59.67-2.41,1a23.17,23.17,0,0,1-2.63.25c-2,.06-2.17-.14-2.79.12-1,.41-.79,1-2,1.88s-1.41.47-2.54,1.29-1,1.27-2.09,2-1.46.36-2.25.87c-1.84,1.2-.75,3.71-2.54,5.25-1.45,1.16-2.53.26-3.45,1.33-1.52,1.76.23,5.48-.58,5.79-.2.08-.43-.09-.59-.2-.83-.62-.33-1.84-.79-3-.64-1.56-3-2.64-4.37-2.09-1,.4-1.25,1.53-2.21,1.5a1.73,1.73,0,0,1-.92-.37c-1.36-.78-3.81.13-5.12,1.25-2.54,2.15-2.83,6.78-.8,8.71.93.88,2.68,1.5,3.75.91.57-.3.54-.71,1.5-1.45.58-.44,1.52-1.17,2.17-.84a1.41,1.41,0,0,1,.58,1.42c-.13,1-1.11,1-1.33,2a1.8,1.8,0,0,0,.42,1.63c.68.58,1.66-.2,2.62.41a2.05,2.05,0,0,1,.79,1c.54,1.37-.59,2.24-.12,3.42a2.47,2.47,0,0,0,1.79,1.42c1.16.19,1.79-.82,2.75-.46.74.27.66,1,1.17,1,1.17.17,2.14-3.41,3.79-3.5a1,1,0,0,1,.83.25c.18.19.21.46.17.92-.13,1.37-.73,1.85-.46,2.33a.86.86,0,0,0,.92.38.72.72,0,0,0,.41-.46c.48-1.07-.31-1.92.09-2.54s1.48-.64,2.25-.34.85,1,1.71,1.54,1.76,0,3.08.17c1.63.25,1.58,1.38,4,3s3.31,1.07,4.66,2.67c.45.52,1.58,1.85,1.3,3.25-.2,1-1,1.67-.75,2.12s.83.26.87.25c.94-.11,1.33-1.22,1.75-1.08.23.08.29.45.29.5.11.7-.72,1.12-.58,1.46s.86.34,1.46.12.8-.86,1.46-1a1.5,1.5,0,0,1,1,.3c.66.51.42,1.33.87,1.54s.8-.53,1.67-.75c1.28-.34,2.86.61,3.71,1.66s.53,1.45,1.16,1.8c1.14.6,2.43-.73,3.09-.17.5.42.34,1.68-.21,2.46s-1.22.54-1.83,1.37-.23,1.19-.8,2.42a8,8,0,0,1-1,1.46c-1.45,2.18.73,4.42-.55,7.21a3.88,3.88,0,0,1-2,2.12c-.88.33-1.33,0-2.41.25a4.33,4.33,0,0,0-2.46,1.75c-1,1.72.75,3.12-.17,4.75-.59,1-1.35.56-2.91,2.21-1,1.06-1.1,1.69-1.88,1.87-1,.24-1.89-.6-2.37-.16a1,1,0,0,0-.21.87c.11,1.41,1.76,1.82,1.66,2.75-.06.59-.78,1-1.2,1.17-1,.36-1.76-.32-2.17.08s.2,1.5-.25,1.84-1.15-.35-1.54,0c-.2.17-.19.47-.17.79,0,.88.47,1.16.63,1.79.24,1-.59,1.19-.55,2.33.06,1.41,1.34,1.93,1,2.92-.15.51-.54.52-.88,1.08a3.38,3.38,0,0,0,0,2.88,1.7,1.7,0,0,1-1.21.33c-1.4-.21-1.2-2.54-3.29-4.08-1-.71-1.89-.87-1.91-1.5s.67-.74.75-1.54c.05-.56-.25-.75-.38-1.5s.15-1,.13-1.63c0-1.1-.91-1.48-1.5-2.54-.42-.74-.42-1.68-.42-3.54,0-2.73.49-3.65,0-5.67-.15-.57-.18-.43-.34-1-.52-2-.12-2.89-.58-4.67-.23-.9-.33-.66-.58-1.58-.6-2.19.06-3.21-.29-4.5s-1.57-1.84-3.34-3c-4.1-2.73-8.23-7.57-7.37-10,.24-.62.92-1.33.71-2.33-.12-.59-.45-.75-.62-1.42a3.57,3.57,0,0,1,.29-2.25c.69-1.76,1.57-1.61,2.33-3.2.1-.22,1-2.2.17-3.75a1.71,1.71,0,0,0-1-.92c-.67-.2-1.08.33-1.83.5-1.47.32-2.95-1-3.59-1.63-1.53-1.41-1-2.12-2.33-3.08s-2.05-.37-3.37-1.46c-1.13-.92-1-1.67-1.92-2s-1.62.49-3,.59c-2.13.14-4.24-1.7-5.21-3.38s-.19-2.19-1.29-4.08c-1.2-2.07-2.38-2-2.71-3.59-.24-1.16.25-1.89-.33-3.33-.42-1-.86-1.14-1-1.17a.91.91,0,0,0-.88.34c-.34.54.51,1.23.54,2.46a3,3,0,0,1-.33,1.41s-.4,1-1.95,0C1.67,64.6,5.23,42.13,23,24.32Z"/><path d="M69.48,15.31c0,.55-2,.3-4.5,1.22s-2.51,1.86-5.39,2.89c-2.22.79-2.85.47-3.11.28a2.2,2.2,0,0,1-.5-2.78c.57-.67,1.81-.34,1.89-.72s-1.29-.71-1.44-1.67a1.24,1.24,0,0,1,.33-1c.62-.58,1.71.14,3.78.61a11.78,11.78,0,0,0,5.5.39,4,4,0,0,1,2.16-.06C68.72,14.58,69.51,15,69.48,15.31Z"/><path d="M47.87,23.23c-.07-.43.68-1,1.42-1.17s.87.23,1.79.17.8-.34,1.37-.29c.85.06,1,.67,1.84.79s.77-.3,1.5-.25c1,.07,1.14.9,2.29,1.12s1.42-.31,1.83,0-.11,1.36.46,2,1.36.35,1.54.87a1.07,1.07,0,0,1-.42,1c-.8.66-2.1-.18-2.5.34s.36,1.05,0,1.75a1.14,1.14,0,0,1-.66.54c-.5.1-.76-.37-1.46-.34-.11,0-.59,0-.67.25s.68.66.63,1.25c0,0,0,.35-.21.42-.38.16-.77-1-1.92-1.67s-2-.15-2.5-.87a1.15,1.15,0,0,1-.17-.83c.2-.65,1.28-.89,1.92-.92.92-.05,1.23.32,2.21.17.45-.08.81-.13.92-.38s.08-.4-1.84-2.37c-.65-.67-.91-.91-1.33-1s-.66.24-1.29.21-.73-.39-1.42-.46-.69.18-1.37.21S48,23.69,47.87,23.23Z"/><path d="M26,22.64c-.09-.55.84-1.21,1.62-1.5,1.88-.69,2.57.84,5.25.55,1.06-.12,1.91-.47,2.75,0,.37.22.58.51,1.08.58.75.11,1.24-.38,1.46-.17s-.29.73-.08,1.38.71.66.67,1-.93.53-1.25.58c-2.11.34-2.76-.72-4.3-.29a9.71,9.71,0,0,1-1.87.67c-.07,0-1.42.2-1.58-.21,0-.06,0-.17.54-1.09.33-.53.4-.59.37-.7-.09-.4-1.08-.69-2-.5-.72.15-.83.51-1.41.5A1.3,1.3,0,0,1,26,22.64Z"/></svg>