<svg id="Layer_1" data-name="Layer 1" xmlns="http://www.w3.org/2000/svg" viewBox="0 0 195.85 209.26"><title>mode</title><ellipse cx="97.93" cy="104.7" rx="70.6" ry="75.04"/><path d="M117.84,28.2s-7.7-3-19.91-3S78,28.2,78,28.2L97.93,0Z"/><path d="M152.33,49.11s-5.24-6.72-15.82-13.21-18.67-8-18.67-8L148.35,14.1Z"/><path d="M43.52,49.11s5.24-6.72,15.82-13.21,18.67-8,18.67-8L47.5,14.1Z"/><path d="M117.84,181.19s-7.7,3-19.91,3-19.92-3-19.92-3l19.92,28.2Z"/><path d="M152.33,160.29s-5.24,6.72-15.82,13.21-18.67,7.95-18.67,7.95l30.51,13.84Z"/><path d="M43.52,160.29S48.76,167,59.34,173.5,78,181.45,78,181.45L47.5,195.29Z"/><path d="M169.32,83.53s2.85,8.19,2.85,21.17-2.85,21.16-2.85,21.16l26.53-21.16Z"/><path d="M152.33,49.11s3.64,3.33,9.75,14.57,7.48,19.85,7.48,19.85l13-32.43Z"/><path d="M152.33,160.29s3.64-3.34,9.75-14.58,7.48-19.85,7.48-19.85l13,32.44Z"/><path d="M26.53,83.53s-2.85,8.19-2.85,21.17,2.85,21.16,2.85,21.16L0,104.7Z"/><path d="M43.52,49.11s-3.64,3.33-9.75,14.57-7.48,19.85-7.48,19.85l-13-32.43Z"/><path d="M43.52,160.29s-3.64-3.34-9.75-14.58-7.48-19.85-7.48-19.85l-13,32.44Z"/></svg>