<svg id="Capa_1" data-name="Capa 1" xmlns="http://www.w3.org/2000/svg" viewBox="0 0 456.03 456.03"><defs><style>.cls-1{fill:#fff;}</style></defs><title>purchase</title><path class="cls-1" d="M345.6,344.3c-29.18,0-53.25,24.71-53.25,55.87,0,30.61,23.55,55.86,53.25,55.86,29.18,0,53.25-24.71,53.25-55.86C398.34,369.55,374.78,344.3,345.6,344.3Z"/><path class="cls-1" d="M439.3,77.88c-1,0-2.56-.53-4.1-.53H112.64l-5.12-36C104.45,17.73,85,0,62,0H20.48C9.22,0,0,9.67,0,21.49S9.22,43,20.48,43H62c2.56,0,4.61,2.15,5.12,4.84L98.82,274.48c4.09,28.47,27.64,49.95,55.29,49.95h213c26.63,0,49.67-19.87,55.3-47.27l33.28-174.57C457.73,91.31,450.56,80,439.3,77.88Z"/><path class="cls-1" d="M215,397.48c-1-29.54-24.58-53.18-52.74-53.18-29.69,1.62-52.22,27.4-51.2,58,1,29.54,24.07,53.17,52.23,53.17h1C193.54,453.88,216.58,428.1,215,397.48Z"/></svg>